<svg width="150" height="36" viewBox="0 0 150 36" fill="none" xmlns="http://www.w3.org/2000/svg">
<path fill-rule="evenodd" clip-rule="evenodd" d="M66.9164 26.3367C68.7848 24.1681 69.939 21.3302 69.939 18.0722C69.939 10.1682 63.7017 5.25 56.943 5.25C49.8571 5.25 43.947 10.4239 43.947 18.0313C43.947 25.2603 49.3663 30.8534 56.943 30.8534C58.4727 30.8534 59.9654 30.5919 61.3618 30.1026L64.2641 34.0439C64.6527 34.5654 65.3786 34.6676 65.9001 34.2893L69.4175 31.7024C69.939 31.324 70.0515 30.5878 69.6629 30.0664L66.9164 26.3367ZM62.4893 20.3247L59.9798 16.917C59.5913 16.3955 58.8653 16.2933 58.3438 16.6716L54.8264 19.2585C54.3049 19.6471 54.2027 20.3731 54.581 20.8945L56.9225 24.0742C53.4264 24.0655 51.0125 21.8274 51.0125 17.9597C51.0125 14.5548 53.3029 12.1314 56.943 12.1212C60.5422 12.1212 62.8735 14.3707 62.8735 17.9597C62.8735 18.8281 62.7383 19.62 62.4893 20.3247Z" fill="#FE5296"/>
<path d="M114.95 20.3111L121.852 22.4379C122.24 22.4686 122.281 22.6833 122.168 22.898C120.4 27.0085 116.33 30.9042 110.307 30.9042C102.659 30.9042 97.3831 25.7713 97.3831 18.1536C97.3831 11.0063 102.557 5.30078 110.41 5.30078C116.575 5.30078 120.389 8.80796 121.954 12.8468C122.128 13.2763 121.954 13.3785 121.78 13.4501L114.878 15.9655C114.69 16.028 114.643 15.9266 114.587 15.8044C114.582 15.7952 114.578 15.7858 114.574 15.7764C114.57 15.7679 114.565 15.7593 114.561 15.7507C113.815 14.3397 112.649 13.4092 110.379 13.4092C107.332 13.4092 105.665 15.352 105.665 18.1843C105.665 21.0166 107.577 22.8571 110.481 22.8571C112.608 22.8571 113.804 21.8346 114.52 20.5565L114.522 20.5517C114.633 20.3102 114.665 20.24 114.95 20.3111Z" fill="#3444F1"/>
<path d="M72.5975 5.42391C72.3521 5.25009 72.209 5.25009 72.209 5.63864C72.1374 15.0252 72.1067 20.3013 72.209 29.6367C72.209 29.7799 72.2806 29.9946 72.5975 29.9946H79.2847C79.4709 29.9946 79.5602 29.9946 79.6031 29.95C79.6426 29.9088 79.6426 29.8297 79.6426 29.6776V20.6796C79.6426 20.6796 88.6304 26.8453 94.6529 30.5263C95.1155 30.7865 95.1148 30.6198 95.1132 30.2401L95.113 30.1684C95.2153 20.9659 95.1846 13.3176 95.113 6.41574C95.113 6.05786 95.113 5.98629 94.7245 5.98629H87.9657C87.646 5.98629 87.6463 6.02088 87.6484 6.32861C87.6486 6.35528 87.6488 6.38482 87.6488 6.41574V15.3728C87.6488 15.3728 78.1906 8.93109 72.5975 5.42391Z" fill="#3444F1"/>
<path fill-rule="evenodd" clip-rule="evenodd" d="M33.3542 5.99653C39.4074 5.99653 42.1681 9.74911 42.1681 14.105C42.1681 17.3667 40.9309 19.6265 38.7019 20.5467C39.2101 21.2907 40.1451 22.6387 41.2415 24.2193L41.2429 24.2214C42.286 25.725 43.4749 27.439 44.5812 29.0437C45.1845 29.8924 45.1129 29.9946 44.5097 29.9946H35.4094C35.0924 29.9946 34.9493 29.9231 34.5607 29.2891C33.211 26.9885 30.9513 23.1643 30.9513 23.1643L28.4769 23.3075V29.6777C28.4769 29.964 28.4462 29.9946 28.119 29.9946H20.6445C20.6155 29.9946 20.5888 29.9948 20.5643 29.995C20.4319 29.996 20.3627 29.9965 20.3264 29.9622C20.2866 29.9245 20.2866 29.8448 20.2866 29.6777V6.31351C20.2866 5.98936 20.4292 5.99237 20.5929 5.99581C20.6099 5.99617 20.6271 5.99653 20.6445 5.99653H33.3542ZM29.9902 17.469C32.0454 17.469 33.2519 16.7226 33.2519 14.6673C33.2519 12.6837 32.2601 11.835 29.9595 11.835H28.4769V17.469H29.9902Z" fill="#3444F1"/>
<path d="M0.292612 29.9951C0.0264765 29.9976 0 29.9979 0 29.5039V6.48738C0 6.02726 0 5.99658 0.357875 5.99658H17.5257C17.8153 5.99658 17.8147 6.05633 17.8124 6.28499C17.8122 6.30652 17.812 6.32984 17.812 6.35446V11.5897C17.812 11.6147 17.8122 11.6378 17.8124 11.659C17.8147 11.8811 17.8149 11.9066 17.5257 11.9066H8.28226V16.5488H16.5645C16.8547 16.5488 16.8535 16.6687 16.8512 16.9086C16.851 16.9308 16.8508 16.954 16.8508 16.9782V22.4282L16.851 22.4706L16.8513 22.505C16.8535 22.752 16.8538 22.7861 16.5645 22.7861H8.28226V29.5141C8.28226 29.9027 8.25159 30.0049 7.96528 30.0049L0.357875 29.9947C0.334694 29.9947 0.312911 29.9949 0.292612 29.9951Z" fill="#3444F1"/>
<path d="M138.896 29.5345V22.3463C138.896 22.3463 143.498 13.3585 146.862 6.4362C146.88 6.39962 146.897 6.36593 146.913 6.33491C147.083 6.00175 147.096 5.97607 146.647 5.97607H138.61C138.193 5.97607 138.181 6.01458 138.087 6.30644L138.078 6.33395C136.984 9.3401 134.684 15.2195 134.684 15.2195C134.684 15.2195 132.066 9.52415 130.757 6.54868C130.512 5.9863 130.44 5.9863 130.154 5.9863H121.228C120.798 5.9863 120.727 5.9863 121.013 6.4771C124.765 13.3483 130.399 22.9803 130.399 22.9803V29.5345C130.399 29.9946 130.399 30.0253 130.645 30.0253H138.508C138.896 30.0253 138.896 29.9946 138.896 29.5345Z" fill="#3444F1"/>
</svg>
